HIERARCHY
ROOT Hips
{
 OFFSET 0.000000 0.000000 0.000000
 CHANNELS 6 Xposition Yposition Zposition Yrotation Xrotation Zrotation
 JOINT Chest
 {
  OFFSET 0.000000 9.585900 0.002600
  CHANNELS 3 Yrotation Xrotation Zrotation
  JOINT Chest2
  {
   OFFSET 0.000000 9.601200 -0.005300
   CHANNELS 3 Yrotation Xrotation Zrotation
   JOINT Chest3
   {
    OFFSET 0.000000 9.561800 0.000000
    CHANNELS 3 Yrotation Xrotation Zrotation
    JOINT Chest4
    {
     OFFSET 0.000000 9.552100 0.000000
     CHANNELS 3 Yrotation Xrotation Zrotation
     JOINT Neck
     {
      OFFSET 0.000000 14.453000 0.000000
      CHANNELS 3 Yrotation Xrotation Zrotation
      JOINT Head
      {
       OFFSET 0.000000 8.936500 -0.011300
       CHANNELS 3 Yrotation Xrotation Zrotation
       End Site
       {
        OFFSET 0.000000 17.073600 -0.006000
       }
      }
     }
     JOINT RightCollar
     {
      OFFSET -2.921100 9.558500 0.000000
      CHANNELS 3 Yrotation Xrotation Zrotation
      JOINT RightShoulder
      {
       OFFSET -13.519700 0.000000 0.000000
       CHANNELS 3 Yrotation Xrotation Zrotation
       JOINT RightElbow
       {
        OFFSET 0.000000 -29.696600 0.000000
        CHANNELS 3 Yrotation Xrotation Zrotation
        JOINT RightWrist
        {
         OFFSET 0.000000 -24.004700 0.000000
         CHANNELS 3 Yrotation Xrotation Zrotation
         End Site
         {
          OFFSET 0.000000 -17.728500 0.000000
         }
        }
       }
      }
     }
     JOINT LeftCollar
     {
      OFFSET 2.921100 9.558500 0.000000
      CHANNELS 3 Yrotation Xrotation Zrotation
      JOINT LeftShoulder
      {
       OFFSET 13.519700 0.000000 0.000000
       CHANNELS 3 Yrotation Xrotation Zrotation
       JOINT LeftElbow
       {
        OFFSET 0.000000 -29.696600 0.000000
        CHANNELS 3 Yrotation Xrotation Zrotation
        JOINT LeftWrist
        {
         OFFSET 0.000000 -24.004700 0.000000
         CHANNELS 3 Yrotation Xrotation Zrotation
         End Site
         {
          OFFSET 0.000000 -17.728500 0.000000
         }
        }
       }
      }
     }
    }
   }
  }
 }
 JOINT RightHip
 {
  OFFSET -7.771700 -0.012900 -0.001300
  CHANNELS 3 Yrotation Xrotation Zrotation
  JOINT RightKnee
  {
   OFFSET 0.000000 -40.869800 0.001200
   CHANNELS 3 Yrotation Xrotation Zrotation
   JOINT RightAnkle
   {
    OFFSET 0.000000 -39.717900 0.002100
    CHANNELS 3 Yrotation Xrotation Zrotation
    JOINT RightToe
    {
     OFFSET 0.000000 -4.965400 11.033500
     CHANNELS 3 Yrotation Xrotation Zrotation
     End Site
     {
      OFFSET 0.000000 -1.423100 5.872300
     }
    }
   }
  }
 }
 JOINT LeftHip
 {
  OFFSET 7.771700 -0.012900 -0.001300
  CHANNELS 3 Yrotation Xrotation Zrotation
  JOINT LeftKnee
  {
   OFFSET 0.000000 -40.869800 0.001200
   CHANNELS 3 Yrotation Xrotation Zrotation
   JOINT LeftAnkle
   {
    OFFSET 0.000000 -39.717900 0.002100
    CHANNELS 3 Yrotation Xrotation Zrotation
    JOINT LeftToe
    {
     OFFSET 0.000000 -4.965400 11.033500
     CHANNELS 3 Yrotation Xrotation Zrotation
     End Site
     {
      OFFSET 0.000000 -1.423100 5.872300
     }
    }
   }
  }
 }
}
MOTION
Frames: 16
Frame Time: 0.008333
0.000000 85.388000 0.000000 0.000000 -5.767877 0.000000 0.000000 11.653817 0.000000 0.000000 -5.885947 0.000000 0.000000 -0.000000 0.000000 0.000000 -0.000000 0.000000 0.000000 12.528835 0.000000 0.000000 0.711642 0.000000 0.000000 -0.000000 0.000000 0.000000 0.000000 -90.000000 0.000000 -2.309062 0.000000 0.000000 2.309062 0.000000 0.000000 -0.000000 0.000000 0.000000 -0.000000 90.000000 0.000000 -2.309062 0.000000 0.000000 2.309062 0.000000 0.000000 8.520406 0.000000 0.000000 1.905762 0.000000 -0.000000 -4.658285 0.000000 0.000000 -0.000000 0.000000 0.000000 8.520406 0.000000 0.000000 1.905762 0.000000 -0.000000 -4.658285 0.000000 0.000000 -0.000000 0.000000
-17.079341 55.367943 27.267979 -175.044039 -32.101050 -10.994056 0.059063 13.379653 5.947586 -0.003927 7.714901 2.116031 0.020969 9.630574 2.665022 0.001630 7.715388 2.110205 0.157249 17.195404 -0.044643 0.191855 -7.653529 -0.105535 0.830001 5.430944 -1.396415 -17.593701 -8.205904 7.420609 36.064426 -78.964981 -22.541764 10.540334 -10.710476 -13.107887 -9.041700 4.123686 -3.489411 4.552658 -4.171597 -3.309619 -73.005282 -76.460643 80.649658 14.434977 -12.420978 -3.498783 -19.237632 -33.648002 2.019194 46.014729 86.720893 41.725572 1.687985 -19.282848 2.359105 -0.764965 1.473104 -0.335345 -16.105765 -45.739206 12.764632 169.097640 79.752875 163.479796 -1.385600 -15.968767 2.506329 -0.949515 -2.343481 -0.419364
-17.079576 55.367440 27.268287 -175.038206 -32.106470 -10.997688 0.052734 13.380371 5.951529 -0.014870 7.715061 2.118499 0.027388 9.634769 2.659498 -0.030609 7.692952 2.137717 0.188938 17.183446 -0.093758 0.251841 -7.747351 -0.178007 0.853507 5.447384 -1.422547 -17.579056 -8.207939 7.423382 34.515909 -79.092306 -21.009685 10.544642 -10.754898 -12.966203 -9.039321 4.127798 -3.514554 4.577572 -4.155370 -3.314655 -73.004541 -76.462647 80.638732 14.439172 -12.443419 -3.494596 -19.232141 -33.644450 2.019764 45.996389 86.725957 41.709142 1.685064 -19.276727 2.362640 -0.745980 1.464747 -0.336737 -16.109494 -45.732753 12.772193 169.111413 79.752161 163.487402 -1.396123 -15.970328 2.508255 -0.943494 -2.341611 -0.415827
-17.079728 55.366763 27.268736 -175.032907 -32.112072 -11.000431 0.043206 13.378983 5.953866 -0.015493 7.712560 2.122845 0.019661 9.632820 2.662142 -0.042676 7.692131 2.136856 0.240525 17.120774 -0.147292 0.303043 -7.777476 -0.229150 0.855757 5.440760 -1.422402 -17.556682 -8.200672 7.414048 32.141658 -79.267664 -18.652664 10.534151 -10.828323 -12.757512 -9.056782 4.124489 -3.515319 4.612428 -4.135074 -3.316137 -73.007302 -76.476797 80.637348 14.426367 -12.446964 -3.515313 -19.227872 -33.641138 2.020686 45.964636 86.733256 41.677355 1.685835 -19.271820 2.363760 -0.736630 1.458700 -0.334593 -16.114054 -45.725616 12.777979 169.135139 79.752986 163.505955 -1.402840 -15.973411 2.505519 -0.938083 -2.337266 -0.411076
-17.078554 55.366178 27.269320 -175.029977 -32.118163 -11.008491 0.032743 13.376565 5.961424 -0.018279 7.712131 2.123631 -0.008607 9.620485 2.670433 -0.019969 7.710252 2.122133 0.293987 17.063961 -0.197247 0.364812 -7.799985 -0.282954 0.842178 5.422757 -1.413119 -17.528386 -8.194222 7.413905 28.972697 -79.458938 -15.501486 10.505735 -10.936278 -12.482527 -9.078049 4.118697 -3.508855 4.619796 -4.107620 -3.292046 -73.009691 -76.505343 80.652566 14.408293 -12.428339 -3.549154 -19.227887 -33.631501 2.025213 46.041402 86.723368 41.741225 1.736831 -19.276107 2.354201 -0.795231 1.462323 -0.330979 -16.122851 -45.716613 12.791555 169.157010 79.753258 163.525394 -1.407490 -15.977863 2.499692 -0.935193 -2.332010 -0.406295
-17.079531 55.364851 27.270550 -175.023410 -32.119732 -11.003594 0.018302 13.373779 5.952324 -0.040842 7.700355 2.129416 0.001377 9.630899 2.663325 -0.017396 7.713817 2.122016 0.346758 17.029784 -0.242174 0.442991 -7.827321 -0.350698 0.830080 5.397877 -1.407670 -17.503824 -8.186658 7.432897 25.222790 -79.626508 -11.771919 10.446111 -11.072714 -12.155777 -9.095743 4.112196 -3.502486 4.637225 -4.087962 -3.288601 -73.004798 -76.510264 80.654972 14.382043 -12.377855 -3.616876 -19.218191 -33.634279 2.013312 46.100930 86.723093 41.795769 1.761869 -19.278484 2.348838 -0.741575 1.464266 -0.325921 -16.120920 -45.711427 12.788249 169.256508 79.764642 163.614922 -1.403303 -15.989552 2.505468 -0.931217 -2.317212 -0.404024
-17.080114 55.364240 27.271102 -175.015626 -32.127565 -11.000708 0.009179 13.380787 5.944746 -0.052568 7.692404 2.133184 -0.006633 9.629659 2.664286 -0.049661 7.698374 2.132144 0.434969 17.027853 -0.308760 0.525324 -7.845312 -0.421784 0.855251 5.398664 -1.420343 -17.480555 -8.168274 7.421782 21.185690 -79.773500 -7.762926 10.348890 -11.219923 -11.806826 -9.073875 4.127241 -3.518099 4.654121 -4.070430 -3.286104 -72.954718 -76.514872 80.609224 14.344970 -12.297482 -3.719953 -19.208365 -33.631533 2.004946 46.087529 86.732368 41.787742 1.732114 -19.274934 2.356884 -0.736829 1.459051 -0.324928 -16.118687 -45.702775 12.781642 169.293759 79.768885 163.648248 -1.411466 -15.991308 2.505917 -0.925004 -2.312122 -0.402072
-17.080604 55.363784 27.272079 -175.011832 -32.135413 -10.994813 -0.003765 13.381042 5.939075 -0.054921 7.693643 2.131496 -0.023587 9.622058 2.668592 -0.052341 7.700371 2.129840 0.492113 17.023694 -0.352958 0.623995 -7.861661 -0.509012 0.852759 5.372109 -1.410837 -17.458567 -8.146814 7.410920 17.619821 -79.850505 -4.230286 10.248746 -11.363370 -11.500904 -9.062068 4.135873 -3.526327 4.659856 -4.061023 -3.276044 -72.815296 -76.512855 80.451467 14.296616 -12.195544 -3.837905 -19.194745 -33.630701 1.997480 46.045674 86.740924 41.753707 1.685730 -19.268739 2.370040 -0.751382 1.451160 -0.326069 -16.110064 -45.694668 12.774961 169.360032 79.775329 163.708031 -1.414937 -15.992370 2.514010 -0.921406 -2.307892 -0.403705
-17.080226 55.363651 27.273760 -175.009275 -32.142097 -10.991957 -0.022503 13.368308 5.936850 -0.055942 7.702269 2.128966 -0.032945 9.620469 2.668398 -0.059754 7.699083 2.129816 0.563194 17.018046 -0.407133 0.710772 -7.866752 -0.581920 0.853171 5.354064 -1.399393 -17.444988 -8.133408 7.400491 14.924052 -79.878293 -1.563294 10.183496 -11.487274 -11.299342 -9.048818 4.147654 -3.533364 4.667841 -4.054227 -3.271878 -72.691772 -76.531078 80.324589 14.221042 -12.027880 -4.005352 -19.187107 -33.627895 1.994147 45.995053 86.748403 41.707548 1.653541 -19.266522 2.377670 -0.743999 1.448868 -0.325737 -16.103750 -45.687724 12.771996 169.397989 79.780481 163.742228 -1.419843 -15.990874 2.523047 -0.917479 -2.305606 -0.408024
-17.083450 55.362697 27.277011 -174.993281 -32.139751 -10.972180 -0.052882 13.355799 5.909044 -0.062976 7.702249 2.129261 -0.036735 9.622994 2.666439 -0.071923 7.693663 2.130781 0.646880 17.008088 -0.469576 0.783959 -7.863804 -0.638329 0.854277 5.335003 -1.385188 -17.436090 -8.116621 7.391583 13.354734 -79.878385 -0.013097 10.162948 -11.576314 -11.218300 -9.070827 4.139449 -3.521110 4.716842 -4.028845 -3.295982 -72.549445 -76.557628 80.180844 14.132347 -11.802446 -4.219179 -19.179979 -33.642132 1.964070 45.916129 86.761670 41.629133 1.637817 -19.267398 2.383965 -0.726118 1.446535 -0.322541 -16.088012 -45.690161 12.736522 169.480470 79.800599 163.819870 -1.425670 -15.993090 2.531306 -0.903216 -2.289657 -0.407100
-17.083148 55.364064 27.279102 -174.989446 -32.154355 -10.966175 -0.066970 13.356005 5.900459 -0.069325 7.701712 2.128760 -0.044757 9.622335 2.665665 -0.078299 7.693116 2.130262 0.718402 17.003092 -0.518404 0.870096 -7.868078 -0.705773 0.860564 5.322854 -1.374257 -17.432841 -8.105397 7.391757 12.939229 -79.862735 0.401744 10.168775 -11.627276 -11.243898 -9.066469 4.147078 -3.523212 4.741083 -4.014731 -3.291188 -72.373122 -76.617808 80.001607 14.034544 -11.518295 -4.479896 -19.175949 -33.630955 1.950769 45.863770 86.761348 41.575186 1.634498 -19.267020 2.386475 -0.721317 1.447683 -0.324699 -16.076185 -45.674178 12.722238 169.496860 79.808858 163.834580 -1.429034 -15.990290 2.535674 -0.900398 -2.285429 -0.408352
-17.082178 55.364963 27.283700 -174.983796 -32.157770 -10.961665 -0.085596 13.344488 5.893159 -0.079020 7.696770 2.128401 -0.053806 9.620977 2.664883 -0.067390 7.708087 2.123673 0.777994 16.980337 -0.560007 0.953181 -7.878621 -0.771745 0.857889 5.299878 -1.358294 -17.426579 -8.092900 7.389769 12.774623 -79.845487 0.561721 10.290162 -11.642437 -11.317903 -9.072049 4.146357 -3.520465 4.770133 -4.006465 -3.288315 -72.145574 -76.693889 79.762032 13.923674 -11.182111 -4.776650 -19.178179 -33.629903 1.944337 45.790287 86.759303 41.500832 1.628042 -19.265483 2.386545 -0.718193 1.450609 -0.324826 -16.074839 -45.668839 12.716483 169.523300 79.822472 163.857732 -1.432069 -15.985779 2.539595 -0.898346 -2.274062 -0.407169
-17.082598 55.366175 27.289103 -174.969134 -32.161534 -10.950686 -0.113605 13.334360 5.875566 -0.077313 7.704845 2.126078 -0.066386 9.608606 2.668737 -0.064574 7.719900 2.116543 0.836434 16.945535 -0.601458 1.031055 -7.899760 -0.838714 0.860710 5.278271 -1.344362 -17.414532 -8.081270 7.395677 13.467277 -79.820368 -0.176396 10.331115 -11.649148 -11.348467 -9.071269 4.150137 -3.520943 4.792517 -4.002926 -3.286371 -71.889850 -76.778741 79.488939 13.798356 -10.814995 -5.088234 -19.178154 -33.629758 1.923047 45.736866 86.755440 41.448228 1.616342 -19.268308 2.387142 -0.726050 1.454681 -0.324655 -16.071153 -45.663548 12.694940 169.557516 79.841899 163.888245 -1.438358 -15.976621 2.541634 -0.886305 -2.264941 -0.404352
-17.079860 55.368810 27.294760 -174.964644 -32.173521 -10.950993 -0.126828 13.329530 5.874438 -0.075343 7.714188 2.125462 -0.079196 9.592357 2.671884 -0.089532 7.691971 2.129403 0.910191 16.940741 -0.669192 1.105432 -7.931457 -0.907524 0.886844 5.301104 -1.355567 -17.356953 -8.071721 7.438768 14.141343 -79.788372 -0.914480 10.404684 -11.643793 -11.371579 -9.039600 4.198812 -3.555928 4.817436 -4.002181 -3.280621 -71.642909 -76.853381 79.207353 13.671322 -10.451037 -5.393853 -19.179124 -33.618767 1.924327 45.623731 86.754169 41.332630 1.609606 -19.259392 2.388890 -0.723403 1.452355 -0.325578 -16.074244 -45.650919 12.695033 169.559910 79.851280 163.889116 -1.440980 -15.961641 2.541118 -0.882798 -2.267078 -0.403891
-17.075295 55.372639 27.300653 -174.964342 -32.192666 -10.958310 -0.131562 13.330638 5.881827 -0.082732 7.711205 2.127377 -0.083385 9.585974 2.669507 -0.094531 7.687731 2.129379 0.967220 16.902073 -0.721586 1.177156 -7.971713 -0.975412 0.898550 5.318394 -1.356907 -17.331799 -8.061654 7.464320 14.450601 -79.775471 -1.247888 10.439868 -11.641806 -11.373218 -9.041043 4.223654 -3.563374 4.858245 -3.994081 -3.276523 -71.412158 -76.895659 78.939323 13.560198 -10.129189 -5.669417 -19.170634 -33.595809 1.936124 45.506080 86.743264 41.214983 1.589433 -19.249757 2.392691 -0.721650 1.450679 -0.324160 -16.081463 -45.629239 12.706730 169.567603 79.858951 163.894081 -1.434553 -15.947148 2.539705 -0.887010 -2.272013 -0.405703
-17.070295 55.375933 27.309037 -174.963388 -32.201352 -10.966572 -0.137551 13.321978 5.889136 -0.098124 7.682930 2.128227 -0.075225 9.611355 2.664987 -0.100108 7.675193 2.127780 1.021631 16.858929 -0.770259 1.245295 -8.016749 -1.038712 0.905130 5.335945 -1.353549 -17.323999 -8.046789 7.492488 14.348261 -79.762055 -1.177339 10.526433 -11.650013 -11.339122 -9.046352 4.250970 -3.564741 4.892506 -3.984458 -3.267636 -71.197236 -76.892529 78.694324 13.481719 -9.888374 -5.891075 -19.170651 -33.579526 1.943728 45.455711 86.720393 41.166872 1.593879 -19.249463 2.391034 -0.691904 1.463258 -0.329382 -16.092723 -45.618147 12.719183 169.551229 79.870210 163.880438 -1.428675 -15.934270 2.532819 -0.890634 -2.272567 -0.407305
